HIERARCHY
ROOT hips
{
  OFFSET 0 10.432787522119774 1.3615615910897314
  CHANNELS 6 Xposition Yposition Zposition Yrotation Xrotation Zrotation
  JOINT spine
  {
    OFFSET -7.042016674e-31 0.605849736412771 0
    CHANNELS 3 Yrotation Xrotation Zrotation
    JOINT chest
    {
      OFFSET 0 1.2699780403367527 0
      CHANNELS 3 Yrotation Xrotation Zrotation
      JOINT upperChest
      {
        OFFSET 0 1.217802795781373 0
        CHANNELS 3 Yrotation Xrotation Zrotation
        JOINT neck
        {
          OFFSET 0 1.524881793055447 0
          CHANNELS 3 Yrotation Xrotation Zrotation
          JOINT head
          {
            OFFSET 0 0.8197776686196176 0
            CHANNELS 3 Yrotation Xrotation Zrotation
            JOINT leftEye
            {
              OFFSET 0.27991711184325396 0.7377279215890094 0.1770057770610815
              CHANNELS 3 Yrotation Xrotation Zrotation
              End Site
              {
                OFFSET 0.27991711184325396 0.7377279215890094 0.1770057770610815
              }
            }
            JOINT rightEye
            {
              OFFSET -0.27991715118228666 0.7377278742074458 0.1770060973723161
              CHANNELS 3 Yrotation Xrotation Zrotation
              End Site
              {
                OFFSET -0.27991715118228666 0.7377278742074458 0.1770060973723161
              }
            }
          }
        }
        JOINT leftShoulder
        {
          OFFSET 0.4148696499235711 1.1670497283493415 0
          CHANNELS 3 Yrotation Xrotation Zrotation
          JOINT leftUpperArm
          {
            OFFSET 0.9737923520503171 0 0
            CHANNELS 3 Yrotation Xrotation Zrotation
            JOINT leftLowerArm
            {
              OFFSET 2.526933563002016 0 0
              CHANNELS 3 Yrotation Xrotation Zrotation
              JOINT leftHand
              {
                OFFSET 2.4263767061081287 0 0
                CHANNELS 3 Yrotation Xrotation Zrotation
                JOINT leftIndexProximal
                {
                  OFFSET 0.7243194303238094 0.08170604153373495 0.2036005707489045
                  CHANNELS 3 Yrotation Xrotation Zrotation
                  JOINT leftIndexIntermediate
                  {
                    OFFSET 0.365490110639793 -0.010566615565509085 -0.014147873305413783
                    CHANNELS 3 Yrotation Xrotation Zrotation
                    JOINT leftIndexDistal
                    {
                      OFFSET 0.22502693978020916 -0.007863122621388996 -0.007567729919505994
                      CHANNELS 3 Yrotation Xrotation Zrotation
                      End Site
                      {
                        OFFSET 0.22502693978020916 -0.007863122621388996 -0.007567729919505994
                      }
                    }
                  }
                }
                JOINT leftLittleProximal
                {
                  OFFSET 0.6720313867214986 0.0817059792423902 -0.3230034999786495
                  CHANNELS 3 Yrotation Xrotation Zrotation
                  JOINT leftLittleIntermediate
                  {
                    OFFSET 0.3458364459000005 5.4765410650858826e-8 2.495506794542024e-7
                    CHANNELS 3 Yrotation Xrotation Zrotation
                    JOINT leftLittleDistal
                    {
                      OFFSET 0.19925722030351722 0.003096736260194355 0.0038306323169590983
                      CHANNELS 3 Yrotation Xrotation Zrotation
                      End Site
                      {
                        OFFSET 0.19925722030351722 0.003096736260194355 0.0038306323169590983
                      }
                    }
                  }
                }
                JOINT leftMiddleProximal
                {
                  OFFSET 0.7300446999180792 0.08170730820222194 0.0226618663244387
                  CHANNELS 3 Yrotation Xrotation Zrotation
                  JOINT leftMiddleIntermediate
                  {
                    OFFSET 0.40758107610000327 -0.0000012383582372876845 3.721937498757377e-7
                    CHANNELS 3 Yrotation Xrotation Zrotation
                    JOINT leftMiddleDistal
                    {
                      OFFSET 0.2514495697999991 7.561061998728746e-8 -1.6055895105115958e-7
                      CHANNELS 3 Yrotation Xrotation Zrotation
                      End Site
                      {
                        OFFSET 0.2514495697999991 7.561061998728746e-8 -1.6055895105115958e-7
                      }
                    }
                  }
                }
                JOINT leftRingProximal
                {
                  OFFSET 0.7217264995692599 0.08170598771388815 -0.1504338786787948
                  CHANNELS 3 Yrotation Xrotation Zrotation
                  JOINT leftRingIntermediate
                  {
                    OFFSET 0.3780872700000014 6.409956210262635e-8 3.723059401883333e-7
                    CHANNELS 3 Yrotation Xrotation Zrotation
                    JOINT leftRingDistal
                    {
                      OFFSET 0.21812031524459563 -0.00271347557699686 -0.004991351593452126
                      CHANNELS 3 Yrotation Xrotation Zrotation
                      End Site
                      {
                        OFFSET 0.21812031524459563 -0.00271347557699686 -0.004991351593452126
                      }
                    }
                  }
                }
                JOINT leftThumbProximal
                {
                  OFFSET 0.10793670302222891 -0.165278914300383 -0.07775358168875651
                  CHANNELS 3 Yrotation Xrotation Zrotation
                  JOINT leftThumbIntermediate
                  {
                    OFFSET 0.40355763830204994 -0.017484092948475194 0.31777731504028983
                    CHANNELS 3 Yrotation Xrotation Zrotation
                    JOINT leftThumbDistal
                    {
                      OFFSET 0.2318770514136803 -0.018507879151339335 0.21396002480314588
                      CHANNELS 3 Yrotation Xrotation Zrotation
                      End Site
                      {
                        OFFSET 0.2318770514136803 -0.018507879151339335 0.21396002480314588
                      }
                    }
                  }
                }
              }
            }
          }
        }
        JOINT rightShoulder
        {
          OFFSET -0.4148696499235712 1.1670497283493415 0
          CHANNELS 3 Yrotation Xrotation Zrotation
          JOINT rightUpperArm
          {
            OFFSET -0.9737923520503168 0 0
            CHANNELS 3 Yrotation Xrotation Zrotation
            JOINT rightLowerArm
            {
              OFFSET -2.5269335630020175 0 0
              CHANNELS 3 Yrotation Xrotation Zrotation
              JOINT rightHand
              {
                OFFSET -2.4263767061081274 0 0
                CHANNELS 3 Yrotation Xrotation Zrotation
                JOINT rightIndexProximal
                {
                  OFFSET -0.7243194303238094 0.08170604153373495 0.2036005707489045
                  CHANNELS 3 Yrotation Xrotation Zrotation
                  JOINT rightIndexIntermediate
                  {
                    OFFSET -0.365490110639793 -0.010566615565509085 -0.014147873305413783
                    CHANNELS 3 Yrotation Xrotation Zrotation
                    JOINT rightIndexDistal
                    {
                      OFFSET -0.22502693978020916 -0.007863122621388996 -0.007567729919505994
                      CHANNELS 3 Yrotation Xrotation Zrotation
                      End Site
                      {
                        OFFSET -0.22502693978020916 -0.007863122621388996 -0.007567729919505994
                      }
                    }
                  }
                }
                JOINT rightLittleProximal
                {
                  OFFSET -0.6720313867214986 0.0817059792423902 -0.3230034999786495
                  CHANNELS 3 Yrotation Xrotation Zrotation
                  JOINT rightLittleIntermediate
                  {
                    OFFSET -0.3458364459000005 5.4765410650858826e-8 2.495506794542024e-7
                    CHANNELS 3 Yrotation Xrotation Zrotation
                    JOINT rightLittleDistal
                    {
                      OFFSET -0.19925722030351722 0.003096736260194355 0.0038306323169590983
                      CHANNELS 3 Yrotation Xrotation Zrotation
                      End Site
                      {
                        OFFSET -0.19925722030351722 0.003096736260194355 0.0038306323169590983
                      }
                    }
                  }
                }
                JOINT rightMiddleProximal
                {
                  OFFSET -0.7300446999180792 0.08170730820222194 0.0226618663244387
                  CHANNELS 3 Yrotation Xrotation Zrotation
                  JOINT rightMiddleIntermediate
                  {
                    OFFSET -0.40758107610000327 -0.0000012383582372876845 3.721937498757377e-7
                    CHANNELS 3 Yrotation Xrotation Zrotation
                    JOINT rightMiddleDistal
                    {
                      OFFSET -0.2514495697999991 7.561061998728746e-8 -1.6055895105115958e-7
                      CHANNELS 3 Yrotation Xrotation Zrotation
                      End Site
                      {
                        OFFSET -0.2514495697999991 7.561061998728746e-8 -1.6055895105115958e-7
                      }
                    }
                  }
                }
                JOINT rightRingProximal
                {
                  OFFSET -0.7217264995692599 0.08170598771388815 -0.1504338786787948
                  CHANNELS 3 Yrotation Xrotation Zrotation
                  JOINT rightRingIntermediate
                  {
                    OFFSET -0.3780872700000014 6.409956210262635e-8 3.723059401883333e-7
                    CHANNELS 3 Yrotation Xrotation Zrotation
                    JOINT rightRingDistal
                    {
                      OFFSET -0.21812031524459563 -0.00271347557699686 -0.004991351593452126
                      CHANNELS 3 Yrotation Xrotation Zrotation
                      End Site
                      {
                        OFFSET -0.21812031524459563 -0.00271347557699686 -0.004991351593452126
                      }
                    }
                  }
                }
                JOINT rightThumbProximal
                {
                  OFFSET -0.10793670302222891 -0.165278914300383 -0.07775358168875651
                  CHANNELS 3 Yrotation Xrotation Zrotation
                  JOINT rightThumbIntermediate
                  {
                    OFFSET -0.40355763830204994 -0.017484092948475194 0.31777731504028983
                    CHANNELS 3 Yrotation Xrotation Zrotation
                    JOINT rightThumbDistal
                    {
                      OFFSET -0.2318770514136803 -0.018507879151339335 0.21396002480314588
                      CHANNELS 3 Yrotation Xrotation Zrotation
                      End Site
                      {
                        OFFSET -0.2318770514136803 -0.018507879151339335 0.21396002480314588
                      }
                    }
                  }
                }
              }
            }
          }
        }
      }
    }
  }
  JOINT leftUpperLeg
  {
    OFFSET 0.8486251400000001 -0.44215692923454897 0
    CHANNELS 3 Yrotation Xrotation Zrotation
    JOINT leftLowerLeg
    {
      OFFSET 0 -4.1014783730019015 0
      CHANNELS 3 Yrotation Xrotation Zrotation
      JOINT leftFoot
      {
        OFFSET -0.0002543926242001143 -4.7729227580453255 0.007402839656626761
        CHANNELS 3 Yrotation Xrotation Zrotation
        JOINT leftToes
        {
          OFFSET 0 -0.7027876860119923 1.2062921852216233
          CHANNELS 3 Yrotation Xrotation Zrotation
          End Site
          {
            OFFSET 0 -0.7027876860119923 1.2062921852216233
          }
        }
      }
    }
  }
  JOINT rightUpperLeg
  {
    OFFSET -0.8486251400000001 -0.44215692923454897 0
    CHANNELS 3 Yrotation Xrotation Zrotation
    JOINT rightLowerLeg
    {
      OFFSET 0 -4.1014783730019015 0
      CHANNELS 3 Yrotation Xrotation Zrotation
      JOINT rightFoot
      {
        OFFSET 0.0002543926242001143 -4.7729227580453255 0.007402839656626761
        CHANNELS 3 Yrotation Xrotation Zrotation
        JOINT rightToes
        {
          OFFSET 0 -0.7027876860119923 1.2062921852216233
          CHANNELS 3 Yrotation Xrotation Zrotation
          End Site
          {
            OFFSET 0 -0.7027876860119923 1.2062921852216233
          }
        }
      }
    }
  }
}
MOTION
Frames: 4
Frame Time: 0.03333333333333333
-0.127265 -0.365365 0.02681 -6.243817 -3.446315 -4.507538 -1.469617 -2.189776 5.266172 -3.883335 0.275339 13.255666 0 0 0 0.393866 5.205426 -2.709111 4.108479 2.488029 -10.147712 0 0 0 0 0 0 2.436254 0.61155 -9.252674 -16.455646 8.092649 -76.950106 -13.202414 -1.148114 0.304139 -11.473749 0.68349 -3.43033 0.050398 -0.112372 -7.390756 2.685625 0.615552 -25.815582 1.726594 0.246685 -16.262007 4.025365 0.888167 -20.644447 -0.973583 0.840604 -30.562561 4.935749 2.467071 -53.095435 1.220418 0.121036 -11.511016 2.957645 0.755577 -28.655965 2.347142 0.464184 -22.37245 1.243028 0.065507 -15.880519 4.053898 1.519159 -41.074051 3.366919 1.000162 -33.081724 12.807951 2.333457 9.419525 20.415874 0.538605 9.69099 19.121726 3.983046 4.028004 5.45758 0.506649 12.688681 2.010757 14.568784 52.684338 11.153628 -0.975054 -0.239727 -1.312914 -11.200975 2.954449 -0.168472 -0.109156 8.350031 -2.160859 0.386531 20.280957 -1.128944 0.103093 10.435347 -2.243145 0.36816 24.460303 -3.274174 0.928942 31.671551 -5.224896 2.828946 56.841654 -1.032635 0.085197 9.629588 -3.302605 0.946583 31.978723 -2.065078 0.360421 19.377809 -2.508611 0.554 18.813988 -3.848751 1.329492 38.101753 -3.838231 1.330336 38.036558 -8.288905 -3.703672 -6.074452 -23.144311 8.672824 -11.912 -12.785699 5.85213 -4.199655 14.811117 -21.200375 11.312541 -4.391717 16.1294 2.54643 0.020598 5.495965 -9.527944 0.000006 2.255753 -0.000009 -8.572211 -2.764132 7.82751 -8.099267 22.406871 -1.780553 0.378201 -16.056274 -2.887817 -0.000003 -0.315938 0
-0.127269 -0.365719 0.026793 -6.243605 -3.456688 -4.505091 -1.469617 -2.189775 5.266172 -3.882415 0.244504 13.250963 0.00453 -0.101714 -0.015117 0.393434 5.267074 -2.699566 4.104426 2.555382 -10.138108 0 0 0 0 0 0 2.436252 0.611545 -9.252677 -16.628137 8.175851 -76.997137 -13.152739 -1.442733 0.299219 -11.406432 0.714656 -3.347425 0.050398 -0.112372 -7.390756 2.685625 0.615552 -25.815582 1.726594 0.246685 -16.262007 4.025365 0.888167 -20.644447 -0.973583 0.840604 -30.562561 4.935749 2.467071 -53.095435 1.220418 0.121036 -11.511016 2.957645 0.755577 -28.655965 2.347142 0.464184 -22.37245 1.243028 0.065507 -15.880519 4.053898 1.519159 -41.074051 3.366919 1.000162 -33.081724 12.807951 2.333457 9.419525 20.415874 0.538605 9.69099 19.121726 3.983046 4.028004 5.457584 0.506646 12.688679 1.967084 14.632711 52.520229 11.19731 -0.971489 -0.239809 -1.243095 -11.093619 2.886169 -0.168472 -0.109156 8.350031 -2.160859 0.386531 20.280957 -1.128944 0.103093 10.435347 -2.243145 0.36816 24.460303 -3.274174 0.928942 31.671551 -5.224896 2.828946 56.841654 -1.032635 0.085197 9.629588 -3.302605 0.946583 31.978723 -2.065078 0.360421 19.377809 -2.508611 0.554 18.813988 -3.848751 1.329492 38.101753 -3.838231 1.330336 38.036558 -8.288905 -3.703672 -6.074452 -23.144311 8.672824 -11.912 -12.785699 5.85213 -4.199655 14.809937 -21.203213 11.30647 -4.397599 16.177146 2.556094 0.018732 5.474553 -9.527367 0.000007 2.255753 -0.000009 -8.574502 -2.763275 7.849516 -8.086909 22.453465 -1.819962 0.379461 -16.083739 -2.889803 -0.000006 -0.315939 0
-0.127276 -0.366511 0.026763 -6.243232 -3.474582 -4.500871 -1.469617 -2.189773 5.266172 -3.880333 0.170385 13.239637 0.014863 -0.346263 -0.051616 0.392494 5.415317 -2.676621 4.094795 2.714176 -10.115594 0 0 0 0 0 0 2.436252 0.611548 -9.252676 -16.991615 8.371893 -77.039698 -13.071448 -2.126524 0.287661 -11.256822 0.847136 -3.12848 0.050398 -0.112372 -7.390756 2.685625 0.615552 -25.815582 1.726594 0.246685 -16.262007 4.025365 0.888167 -20.644447 -0.973583 0.840604 -30.562561 4.935749 2.467071 -53.095435 1.220418 0.121036 -11.511016 2.957645 0.755577 -28.655965 2.347142 0.464184 -22.37245 1.243028 0.065507 -15.880519 4.053898 1.519159 -41.074051 3.366919 1.000162 -33.081724 12.807951 2.333457 9.419525 20.415874 0.538605 9.69099 19.121726 3.983046 4.028004 5.457587 0.506649 12.688681 1.842819 14.776681 52.123832 11.33945 -0.961248 -0.239973 -1.063931 -10.829506 2.72586 -0.168472 -0.109156 8.350031 -2.160859 0.386531 20.280957 -1.128944 0.103093 10.435347 -2.243145 0.36816 24.460303 -3.274174 0.928942 31.671551 -5.224896 2.828946 56.841654 -1.032635 0.085197 9.629588 -3.302605 0.946583 31.978723 -2.065078 0.360421 19.377809 -2.508611 0.554 18.813988 -3.848751 1.329492 38.101753 -3.838231 1.330336 38.036558 -8.288905 -3.703672 -6.074452 -23.144311 8.672824 -11.912 -12.785699 5.85213 -4.199655 14.805512 -21.224409 11.292404 -4.411222 16.289985 2.578985 0.015419 5.424554 -9.525979 0.000007 2.255753 -0.000009 -8.578103 -2.777031 7.90262 -8.057583 22.566183 -1.915306 0.381554 -16.149834 -2.893974 -0.000004 -0.315938 0.000001
-0.127283 -0.367597 0.026734 -6.242856 -3.49247 -4.496652 -1.469616 -2.189776 5.266172 -3.877708 0.06676 13.223765 0.028006 -0.6882 -0.103002 0.391392 5.622599 -2.644552 4.08162 2.919443 -10.087288 0 0 0 0 0 0 2.436252 0.61155 -9.252677 -17.420655 8.653968 -76.958736 -13.022249 -3.039771 0.272006 -11.071504 1.14212 -2.780076 0.050398 -0.112372 -7.390756 2.685625 0.615552 -25.815582 1.726594 0.246685 -16.262007 4.025365 0.888167 -20.644447 -0.973583 0.840604 -30.562561 4.935749 2.467071 -53.095435 1.220418 0.121036 -11.511016 2.957645 0.755577 -28.655965 2.347142 0.464184 -22.37245 1.243028 0.065507 -15.880519 4.053898 1.519159 -41.074051 3.366919 1.000162 -33.081724 12.807951 2.333457 9.419525 20.415874 0.538605 9.69099 19.121726 3.983046 4.028004 5.457584 0.506649 12.688681 1.643399 14.963163 51.568354 11.590771 -0.948503 -0.240197 -0.790703 -10.451397 2.505704 -0.168472 -0.109156 8.350031 -2.160859 0.386531 20.280957 -1.128944 0.103093 10.435347 -2.243145 0.36816 24.460303 -3.274174 0.928942 31.671551 -5.224896 2.828946 56.841654 -1.032635 0.085197 9.629588 -3.302605 0.946583 31.978723 -2.065078 0.360421 19.377809 -2.508611 0.554 18.813988 -3.848751 1.329492 38.101753 -3.838231 1.330336 38.036558 -8.288905 -3.703672 -6.074452 -23.144311 8.672824 -11.912 -12.785699 5.85213 -4.199655 14.7974 -21.270682 11.272805 -4.430246 16.449641 2.611391 0.01197 5.35447 -9.523966 0.000007 2.255753 -0.000009 -8.581108 -2.814178 7.97902 -8.015735 22.728744 -2.052641 0.38359 -16.244698 -2.899324 -0.000003 -0.315937 0
